/* XPM */
static char *exit1682420926[] = {
/* columns rows colors chars-per-pixel */
"47 47 124 2 ",
"   c None",
".  c #020000",
"X  c #0B0001",
"o  c #0C0509",
"O  c #0D0B0D",
"+  c #120104",
"@  c #15050A",
"#  c #18040A",
"$  c #120B0D",
"%  c #19080E",
"&  c #1C0D13",
"*  c #151415",
"=  c #1B1216",
"-  c #1F151C",
";  c #210E16",
":  c #231317",
">  c #24141A",
",  c #28171D",
"<  c #21191C",
"1  c #241D21",
"2  c #2C1C23",
"3  c #331D27",
"4  c #331F28",
"5  c #2E2027",
"6  c #2C2329",
"7  c #302027",
"8  c #34242C",
"9  c #39262F",
"0  c #322A2E",
"q  c #272F31",
"w  c #382730",
"e  c #352B32",
"r  c #3A2B34",
"t  c #3F2F38",
"y  c #3F323B",
"u  c #38383D",
"i  c #41333C",
"p  c #40383F",
"a  c #453641",
"s  c #483640",
"d  c #473A43",
"f  c #493C46",
"g  c #434147",
"h  c #43434A",
"j  c #4C444D",
"k  c #50424C",
"l  c #534B54",
"z  c #594B56",
"x  c #5B4F59",
"c  c #505258",
"v  c #5B535C",
"b  c #60545F",
"n  c #5C5761",
"m  c #5E5B65",
"M  c #605660",
"N  c #645B66",
"B  c #655E69",
"V  c #5F616B",
"C  c #64636D",
"Z  c #6B636F",
"A  c #6E6672",
"S  c #656A74",
"D  c #6D6A75",
"F  c #6E6E79",
"G  c #716A75",
"H  c #736E79",
"J  c #6E747D",
"K  c #73727D",
"L  c #7A737F",
"P  c #6B7780",
"I  c #6E7A83",
"U  c #747581",
"Y  c #7A7581",
"T  c #757982",
"R  c #7C7986",
"E  c #7B7D89",
"W  c #827E8B",
"Q  c #7D838E",
"!  c #798C93",
"~  c #7D959D",
"^  c #84828E",
"/  c #848591",
"(  c #898794",
")  c #868A96",
"_  c #8A8996",
"`  c #868D99",
"'  c #8C8D9A",
"]  c #86919C",
"[  c #8B919E",
"{  c #91929F",
"}  c #8C95A2",
"|  c #8F9BA7",
" . c #8F9DA9",
".. c #9395A2",
"X. c #9699A6",
"o. c #979DAA",
"O. c #9A9EAB",
"+. c #95A0AD",
"@. c #9CA0AE",
"#. c #9DA6B4",
"$. c #96A8B5",
"%. c #9AA8B6",
"&. c #9DABB9",
"*. c #A1A4B3",
"=. c #A6AFBD",
"-. c #A0B1BE",
";. c #A4B4C2",
":. c #ACB7C5",
">. c #A7B9C7",
",. c #A9B9C7",
"<. c #A5BDCA",
"1. c #ABBDCA",
"2. c #ACC2CF",
"3. c #ACC4D1",
"4. c #B4C6D5",
"5. c #B2C9D7",
"6. c #B6CAD9",
"7. c #BACEDD",
"8. c #B6D0DE",
"9. c #BBD0DF",
"0. c #BDD5E4",
"q. c #BFDEEC",
"w. c #C0D6E5",
"e. c #C4DBEB",
/* pixels */
"                                                                                              ",
"                                                                                              ",
"                                                                                              ",
"                                                                                              ",
"                                                                                              ",
"                                                                                              ",
"                                                                                              ",
"                                                                                              ",
"                                                                                              ",
"                                                            . . .                             ",
"                                                          + + # + +                           ",
"                                                        < r s s i 5 =                         ",
"                                                      & j J ' _ L z 7 +                       ",
"                                                    X 8 S %.5.4.O.H f : X                     ",
"                                                  $ > j E &.1.1.X.L v i > $                   ",
"                  $ @ X . X X . X . X X . . . . O e l A R E T J C N N N l r =                 ",
"                ; : ; % % # % % % % % & # + X X 2 v W ^ A f 4 < 2 f D ^ R z 3 +               ",
"              $ ; 2 4 9 8 9 8 8 8 8 9 r i r 2 7 k Y X._ v : . . X w G ....Z 9 +               ",
"              o ; 3 p z b b x z z x b N Z Z N B L { @.W j   . . . r H X.X.A 9 +               ",
"                # 8 z L _ _ W W W W ^ ( _ ' _ ` ..*.O.W       . + i H ..' B 8 +               ",
"                # 8 N ' =.:.=.*.*.#.O...' / ^ ^ { @.o.Q         # i G _ ^ M 7 +               ",
"                # 9 Z +.5.0.7.6.4.1.#./ D v c v H ..#.]         & a D ^ R n 7 +               ",
"                + w D #.6.q.0.6.9.6.#.K d : * : j ' ;.$.        # a G ( ^ n 7 +               ",
"                # w J &.5.2.%.&.5.0.-.S 5 . . . y ` 5.2.        X i Y O...Z 8 +               ",
"                + r U -.<.} D K &.0.3.P     . . a ..0.3.        . r Q ,.;.Y r +               ",
"                + t E >.-.F r i E 4.3.        X f ..6.<.        . p ) 3.1.R r X               ",
"              . + i / 5.;.V & & l } +.        + p T o. .      q e n ` %.| C 2 X               ",
"              . + a ' 7.3.S   . 6 n S h         1 g m F I I ! ~ Q / Q U n u =                 ",
"                + i ) 5.<.      o 1 w 1           $ , f U $.0.q.5.o.S a : O                   ",
"                X w F o.o.        X # o             . 2 C o.6.e.4.} c & .                     ",
"                  < f C m                             $ p A / } Q m e X                       ",
"                    < 8 6 -                             = 4 i i t 2 =                         ",
"                      X + X                               X + + + X                           ",
"                                                                                              ",
"                                                                                              ",
"                                                                                              ",
"                                                                                              ",
"                                                                                              ",
"                                                                                              ",
"                                                                                              ",
"                                                                                              ",
"                                                                                              ",
"                                                                                              ",
"                                                                                              ",
"                                                                                              ",
"                                                                                              ",
"                                                                                              "
};
