/* XPM */
static char *floors1682420926[] = {
/* columns rows colors chars-per-pixel */
"47 47 27 1 ",
"  c #362134",
". c #372134",
"X c #392336",
"o c #362038",
"O c #37203A",
"+ c #3A2339",
"@ c #3B233A",
"# c #3B2438",
"$ c #3B2439",
"% c #3D253A",
"& c #38223C",
"* c #3B243D",
"= c #3C243C",
"- c #3E263E",
"; c #3F273E",
": c #40273E",
"> c #41283F",
", c #43283F",
"< c #462D3C",
"1 c #4A2F3F",
"2 c #412840",
"3 c #422840",
"4 c #432840",
"5 c #432941",
"6 c #432842",
"7 c #462B45",
"8 c #4E3242",
/* pixels */
"<887<111111111111711111811711111111111111111111",
"+---###@=-@@@#=-+@#:=+@#@+@+#:##-++@@#+-@##@+=@",
"oo*oOO#+ooO@XOOoOOX.OOo+OooOOOX+OoO+@OOoO+++OOo",
"+**&++O++o+X@++OO=+X+@&@++=++=o+=o+@++O++&O+++X",
"@:2#+#2#::@-:#:##-#:#:@#:#:#-#2#:##:#:#2-+:-##:",
"#:22@##-###:-@:#-#:#-#:::#-@###-#::##@:#-@##:::",
"@::#@#:##::###@:#:#-#:@#@##2-#:#@##-::@##-#:@-#",
"#:::#:#-:@#@:::#:#:#:#:#-:@:#:#:::#:#@:@#:#:#:#",
"#2-#@:-:#:@#@:@2##@:##@:##::@:#:@##:@:#:@:#2@:#",
"#2-2#:##:#-::###2@:#2@:#::##@#:#:@2##@2##@:##@:",
"+:-#@####@@##2@:#:#2#:#2@#@::#@##:@:#:@##2@##22",
"@--2@#:-:@::#@:#:@#@:@#@#::#-@:-2##@2#:@:#:@:##",
"#:--###:#:#2#:#2@2#:#2#:###:@:#:@##:@:#2@##2@:@",
"#---#-@::##@:@#@##:@#@:@2@:###:#:@2##@:#:@:#:##",
"#-;;##:#@2#:@2#:@:@#@:###:#::#@##:@:#2@##2@:#2@",
"#2;##:#-##:@##:@:#2#:#2@:@@@:@-:2##@:#:@:##@#@:",
"#--:@#:@##@:##@:@2#:#2#:@#@:@2#:@##:@:#:@##2#2#",
"@:-#:#@:2@:#2@:###:@#@:@2#:###:@:@2##@2#:@:##@:",
"#:::@#:##:#2#:#2@:@#@:###:@2@:@##:@:#:@##2@:@:#",
"@::#@:#::@#@:@#@:#2#:#2@:@##:#2#2##@2#:@:##@:#2",
"#--#@:@#@2#:#2#:@#@:@#@:##@:@2#:@##:@:#2@:#:@:#",
"#2-2#:#:##:@#@:@2#:#2#:#2@:###:@:@2##@:##@2##@@",
"$>-#@###@:@#@:###:@2#:@2#:#2@:@##:@:#2@##:@##:@",
"$--2@#2@:#2#:#2@:@##:@##:@#@:#2#2##@:#:@2#:@2#:",
"$->-$##-#2#:@#@:##@:##@:@#@:@2#:@##:@:#:@:#-@:#",
"$;2##-#:#@:@2#:#2@:#2@:#2#:###:@:@2##@2#@:#:#:#",
"$;;--##:@:###:@2#:#2#:#2#:@2@:@##:@:#:@##:@##2-",
"$;;###+-:#2@:@##:@#@:@#@:@##:#2#2##@2#:@:#:#-#-",
"@::#@#::#2#:##@:@2#:#2#:##@:@2#:@##:@:@-##-:#:@",
"#-:::##@#@:@2@:###:@#@:@2@:###:@:@2#@:#::@#@-##",
"#--@@#:#@:###:#2@:@#@:###:#2@:@##:@:#:@##::-#2-",
"#:-::#:@:#2@:@#@:#2#:#2@:@#@:#2#2###:#:#:##@#+-",
"#--#@#:-@##:#:@###2@:@:@:#2###2@:#2###2@:@:@:#2",
"#2-2:##:::#@:#-:@:#:###2@#@:@:#:@#@:@:#:###2@##",
"$>-#@#-#@:#:#@@#:@#@2@:#:#:@:@#@:#:@:@#@2@:##@:",
"$--2+:#2@#:#:@::#2#:#:@#@2###2#:@2###2#:#:@##:@",
"$---####@:###:@###2@:@#@:@:@:@:@:@:@:@:@#@:#2@:",
"$;--:#@::#2@:#2#@:#:##::###2###2###2###2#:@2#:@",
"$;;;$:-:@#@:###::#@@:##:2@:#2@:#2@:#2@:#2###:##",
"$;;#####2#:#2@:@#:#::#@-#:@##:@##:@##:@#@:@:@2#",
"+:2#@-#-#:#2##::-#:#-##::###:###@::##2-#:@#:#-@",
"X--2@#@+@@#@=@@@#@@@@:-#@@:@@@--@#@#=##+#@#@@:@",
"X-####$$@X@X:@@@X@+$#@@###X@#+###@@@#@*$@:@##:@",
"@2:>#:>2::::##:::-:>:::##2:-::->:::2#2;2:#:-:#:",
"27742444444>44442444444247444442,4444444444,:44",
":674>244444>4,442244444:44442272,4442244444:,44",
".+#X..o.$.....$X.$o.$.....$XO.....$...o.#....X#"
};
