/* XPM */
static char *wall1682420927[] = {
/* columns rows colors chars-per-pixel */
"47 47 31 1 ",
"  c #180E10",
". c #1A0E11",
"X c #1C0E13",
"o c #1C0D14",
"O c #1C0F14",
"+ c #1F0F17",
"@ c #1E1015",
"# c #1F1016",
"$ c #1F1116",
"% c #210F15",
"& c #211116",
"* c #201017",
"= c #231117",
"- c #211118",
"; c #231318",
": c #25131A",
"> c #27131B",
", c #25141A",
"< c #24141B",
"1 c #27151B",
"2 c #26131C",
"3 c #28141B",
"4 c #28151C",
"5 c #28141D",
"6 c #29141D",
"7 c #2A161E",
"8 c #2D161F",
"9 c #2A1620",
"0 c #2B1721",
"q c #2E1720",
"w c #2E1823",
/* pixels */
".O##...OXX.O.O#..#.@XXXO.OOO.X.OOXXoXX.XXOO. O:",
"#663:::2:6:2:23,3--2:6:::2,:22:2::3:2:6::6::%:6",
"-qq8,6666666666666638:6666666666666266666666,3w",
"&6866,666:6366:66239632266:66:6662666:662262,66",
"#363,,::::::::::3--3<-::::,,:::::::6::::23::%:9",
"#36,&,:&%:::&:::<33;-,:::%:&::::=::=;:&::::%%%6",
"#,6,&:::::::,,::--33,:::::::::::::::::::::::&:8",
"&663,:::::::::::33<-::::::::::::::::::::::::%:6",
"O39::&,::::::::::::::::::::::::::::::::::66&&:9",
"-362,,,::::::::::::::::::::::::::::::::::::&&,9",
"#666,-::::::::::::::::::::::::::::::::::::::&-q",
"#66,,-:::::::::::::::::::::::::::::::::::66&&,6",
"#,6,,,::::::::::::::::::::::::::::::::::::::%:8",
"&673,;::::::::::::::::::::::::::::::::::::2%&&6",
"#673;,,:::::::::::::::::::::::::::::::::::::::8",
"#,6,,;,,:::::::::::::::::::::::::::::::::6,-&-9",
"&666::::::::::::::::::::::::::::::::::::::2%%:8",
"&,6,&::::::::::::::::::::::::::::::::::::2::;%6",
"#,63,,::::::::::::::::::::::::::::::::::::::;:9",
"&666&:::::::::::::::::::::::::::::::::::::::%;9",
"#666:&,::::::::::::::::::::::::::::::::::62:%-9",
"#,61::::::::::::::::::::::::::::::::::::::2=%:9",
"#661:&:::::::::::::::::::::::::::::::::::6=:%&q",
"#161::::::::::::::::::::::::::::::::::::::2=&,9",
"$393$;3<::::::::::::::::::::::::::::::::::3:&,9",
"$6333<3-:::::::::::::::::::::::::::::::::::%&,9",
"+393,,<::::::::::::::::::::::::::::::::::6::&,9",
"+323:-::::::::::::::::::::::::::::::::::::::&&6",
"#663&::::::::::::::::::::::::::::::::::::6:&;;w",
"#36,,,::::::::::::::::::::::::::::::::::::::&;3",
"+663,,::::::::::::::::::::::::::::::::::::::&,9",
"$36,:&::::::::::::::::::::::::::::::::::::::&-9",
"+363,::::::::::::::::::::::::::::::::::::2,:%,8",
"+233,-:::::::::::::::::::::::::::::::::::2,-&-9",
"$393,::::::::::::::::::::::::::::::::::::2::-%9",
"+933,-::::::::::::::::::::::::::::::::::::2-&,9",
"+36,,,:::::::::::::::::<::::::::::::::::::6%;;8",
"O963-::::::::::::::::::3:::::::::::::::::6::%;8",
"+392,,,:::::::::::::::<-:::::::::::::::::::&%:q",
"+322,-::::::::::::::::3;:::::::::::::::::6,,-#9",
"&663,,<1:::::,,:33$9<<<<,,,,,,,,;3-<,,,,:::-&,8",
"#,6,&&,;&::::-::$33$3$<9:-:,,,-,<3-<&,;,::::&-6",
"#,6,-,<;,,::,-:-;;<;-$3$::-,,-,,3$$3,,,,:::%%:9",
"&663,,3;,,,,3,6,111333113,33,6,,33333,,,:3::&,9",
"-6w6,767677666663939699366666676339266766663-3w",
"-w877,33161,6376331133333333,6,7933966,76663,,w",
"@,,,&-&#;;&-&#&;&-$#;;----;$&&##&-$--&&-&&&&%&6"
};
