/* XPM */
static char *collectible1682420926[] = {
/* columns rows colors chars-per-pixel */
"47 47 202 2 ",
"   c None",
".  c #000007",
"X  c #03000C",
"o  c #0B020E",
"O  c #15090D",
"+  c #160A0D",
"@  c #0B0212",
"#  c #070011",
"$  c #120513",
"%  c #150916",
"&  c #1C0D15",
"*  c #160918",
"=  c #1E1016",
"-  c #23150E",
";  c #221314",
":  c #261915",
">  c #24121A",
",  c #28151B",
"<  c #2D1A16",
"1  c #341E14",
"2  c #331D1D",
"3  c #381F15",
"4  c #3C220F",
"5  c #3B231D",
"6  c #37221D",
"7  c #371F20",
"8  c #362020",
"9  c #3A2321",
"0  c #3F2922",
"q  c #412717",
"w  c #442B1A",
"e  c #492D1E",
"r  c #4C311C",
"t  c #53331F",
"y  c #452D22",
"u  c #492F24",
"i  c #4E3325",
"p  c #543524",
"a  c #593925",
"s  c #68441D",
"d  c #6E491E",
"f  c #63401E",
"g  c #6A4621",
"h  c #64442B",
"j  c #6C4A2D",
"k  c #6B4827",
"l  c #714C20",
"z  c #714E2E",
"x  c #7A5324",
"c  c #7B562C",
"v  c #765127",
"b  c #6E4E34",
"n  c #745431",
"m  c #785631",
"M  c #7E5D35",
"N  c #855B25",
"B  c #825D33",
"V  c #8E6328",
"C  c #95692D",
"Z  c #926527",
"A  c #9E712E",
"S  c #876034",
"D  c #8D6433",
"F  c #946B34",
"G  c #996D30",
"H  c #9D743B",
"J  c #A1742F",
"K  c #A67933",
"L  c #A97B32",
"P  c #A0773A",
"I  c #A37A3C",
"U  c #AA7F3E",
"Y  c #987650",
"T  c #9A7444",
"R  c #A37D46",
"E  c #AC813D",
"W  c #B38334",
"Q  c #B88837",
"!  c #B1853E",
"~  c #B5893E",
"^  c #B98A3D",
"/  c #B68836",
"(  c #CC9B3F",
")  c #C1913A",
"_  c #D4A23D",
"`  c #A6814F",
"'  c #B78C42",
"]  c #BA8D44",
"[  c #BF9140",
"{  c #A58359",
"}  c #C39542",
"|  c #C79845",
" . c #CB9C46",
".. c #C5994A",
"X. c #CA9E4A",
"o. c #C0964B",
"O. c #C59C55",
"+. c #CDA14C",
"@. c #CBA245",
"#. c #D4A443",
"$. c #D2A44B",
"%. c #DCAD4E",
"&. c #D8AA47",
"*. c #DEB04E",
"=. c #CCA156",
"-. c #CFA95A",
";. c #D2A757",
":. c #D6AB54",
">. c #D9AE54",
",. c #D4AB5D",
"<. c #DEB356",
"1. c #DCB35B",
"2. c #E0AF4E",
"3. c #E2B147",
"4. c #E4B54E",
"5. c #EFBC4D",
"6. c #E4B654",
"7. c #EABC55",
"8. c #E1B65C",
"9. c #E4B95A",
"0. c #EBBD5A",
"q. c #E6B854",
"w. c #CCA766",
"e. c #D2AC67",
"r. c #D4B47A",
"t. c #D6B678",
"y. c #C7A678",
"u. c #E4BA62",
"i. c #E4BE6D",
"p. c #E2B760",
"a. c #EEC15B",
"s. c #EECC5D",
"d. c #F2C556",
"f. c #F2C55B",
"g. c #FACD5E",
"h. c #F6C95D",
"j. c #FDD05C",
"k. c #EBC462",
"l. c #EECB68",
"z. c #F1C761",
"x. c #F4CA63",
"c. c #FACE64",
"v. c #F4CC6C",
"b. c #F1C669",
"n. c #FDD365",
"m. c #FED66A",
"M. c #FEDA6C",
"N. c #F5D26B",
"B. c #ECCB7B",
"V. c #E9C576",
"C. c #F1CC7C",
"Z. c #FFDC73",
"A. c #FCD776",
"S. c #FFE26F",
"D. c #FFE272",
"F. c #FFE579",
"G. c #FFF37F",
"H. c #D3B583",
"J. c #D9BB84",
"K. c #DEC185",
"L. c #DDC394",
"P. c #ECCD8B",
"I. c #EACA85",
"U. c #F0CE83",
"Y. c #FCDB84",
"T. c #FDDE8B",
"R. c #F2DF8C",
"E. c #E7CC94",
"W. c #F9DD9D",
"Q. c #F2D999",
"!. c #FFEA84",
"~. c #FFE18C",
"^. c #FFF385",
"/. c #FEE595",
"(. c #FAE597",
"). c #FFF89B",
"_. c #E9CFA2",
"`. c #ECD6A9",
"'. c #F5DCA3",
"]. c #E7D8B0",
"[. c #F2DFB3",
"{. c #FFEAA4",
"}. c #FBE5AC",
"|. c #FEE9AA",
" X c #FFFBA9",
".X c #EFE0BC",
"XX c #FEECB6",
"oX c #F4E3BD",
"OX c #FFEDBB",
"+X c #F8E8B7",
"@X c #FDF3BC",
"#X c #FFFFB4",
"$X c #F8E9C6",
"%X c #FFF0C3",
"&X c #FFF4CB",
"*X c #FFFCCE",
"=X c #FDF3D3",
"-X c #F7F3DB",
";X c #FFF7DA",
":X c #FFFCDD",
">X c #FEFEEA",
",X c #FFFCE7",
/* pixels */
"                                                                                              ",
"                                                                                              ",
"                                                                                              ",
"                                                                                              ",
"                                                                                              ",
"                                                                                              ",
"                                                                                              ",
"                                                                                              ",
"                                                                                              ",
"                                  @ * * * * * % * * * % $                                     ",
"                                  : 2 q 5 5 3 2 5 y 9 7 :                                     ",
"                                ; r l x x d s s d l c z p ,                                   ",
"                            X @ 0 c K Q W K J J K W ^ U M y * X                               ",
"                            O 2 j R ;.u.p.,.-.w.,.8.6.$.` l 5 O                               ",
"                          + 4 d I w.P.W.{.W.'.'.'.T.A.d.#.J l 5 + X                           ",
"                      X $ 3 d K -.P.+X&X*X&X&X=X%XXX~.c.5._ L v 5 $ X                         ",
"                      & 7 h P ;.U.OX;X,X&X.X.X$X$X[.~.M.j.s.,.` b 9 &                         ",
"                    < u n R w.U.XX:X,X=X].K.r.H.L.I.A.S.!./.Q.H.{ n r < O                     ",
"                X & w v U ,.P.+X:X,X:X[.t.=.~ ~ ] 1.s.M./.@X$X`.e.' N w = #                   ",
"                @ > t Z  .i.[.;X,X-X.XE.e...~ / [ @.3.x.~.@X&X}.C. .Z a , @                   ",
"                @ > p Z | C.%X,X-X].K.t.r.J.t.-.&._ _ <.B.(.|.(.v. .G a , @                   ",
"                @ = t N } V.OX;X.Xt.O.w.L.oX+XR.h.3.( X.-.l.A.Z.a.} F p , #                   ",
"                X = e N ~ i.{.XXE.O.Q O.E.*X*X XD.7.} ^ | 6.j.j.6.] B i > o                   ",
"                # & y c ! 1.Y.T.k...W ..I.@X#X).F.a.} ! } 4.j.j.6.] B i = o                   ",
"                X = u B ' 6.n.m.0.X.^ ..u.F.^.^.S.a...^ X.6.n.n.q.] S i > o                   ",
"                o > i D } 0.m.A.l.1.+.@.*.d.s.s.s.<.+.+.>.l.M.M.a.| F p , X                   ",
"                X > p C | b./.{.(.I.1.*.#.#.@.+.+.:.>.6.k.N.M.m.f.+.H a , @                   ",
"                # = p Z } i.}.%X@X(.c.4.#.[ ~ ! [ =.9.c.N.M.m.n.7...F a > @                   ",
"                X & q l I e._.$X@X).Z.d.%.X.] ] ..>.x.M.F.S.n.7.+.` c e = o                   ",
"                    ; w b Y y.P.(.!.D.n.s.1.:.:.<.k.m.M.S.M.a.+.H b e :                       ",
"                      O 2 h T O.k.m.M.m.m.n.x.x.c.N.M.M.n.7.@.H h 8 &                         ",
"                      X @ 2 s A | q.c.M.M.m.m.m.M.M.m.n.0.$.I j 5 @ .                         ",
"                          + 1 f G | 7.g.c.h.a.f.h.g.g.7.+.H j 6 O                             ",
"                            o 2 h H +.*.%.$.X.X.+.%.2.$.I b 2 $                               ",
"                            . $ 9 n P E E H H F H U ! I m 5 $ .                               ",
"                                = y h n j k h h k b z k i ;                                   ",
"                                  : 2 8 8 2 2 2 2 7 8 2 >                                     ",
"                                  o $ $ $ $ @ @ $ $ $ $ o                                     ",
"                                                                                              ",
"                                                                                              ",
"                                                                                              ",
"                                                                                              ",
"                                                                                              ",
"                                                                                              ",
"                                                                                              ",
"                                                                                              ",
"                                                                                              "
};
