/* XPM */
static char *player1682420927[] = {
/* columns rows colors chars-per-pixel */
"47 47 217 2 ",
"   c None",
".  c #040000",
"X  c #0C0101",
"o  c #0D0709",
"O  c #130104",
"+  c #15040A",
"@  c #1A060B",
"#  c #130A0C",
"$  c #1A090E",
"%  c #190106",
"&  c #1D0D12",
"*  c #160D11",
"=  c #1E1318",
"-  c #270606",
";  c #220D14",
":  c #221117",
">  c #24141A",
",  c #2A161D",
"<  c #2D1618",
"1  c #3D0F03",
"2  c #2D1C24",
"3  c #291C25",
"4  c #311D26",
"5  c #2D222C",
"6  c #33222B",
"7  c #3E242A",
"8  c #342933",
"9  c #392B35",
"0  c #3B2F39",
"q  c #3C313A",
"w  c #2E2631",
"e  c #542A1E",
"r  c #4A2D2E",
"t  c #452728",
"y  c #512D28",
"u  c #58332A",
"i  c #452D33",
"p  c #4B2F30",
"a  c #4D3234",
"s  c #44323C",
"d  c #4D353A",
"f  c #4E383E",
"g  c #533534",
"h  c #53393C",
"j  c #5C3E3C",
"k  c #583835",
"l  c #683B2B",
"z  c #643D35",
"x  c #723E2A",
"c  c #431508",
"v  c #6A4338",
"b  c #764938",
"n  c #71412F",
"m  c #373240",
"M  c #4C3C45",
"N  c #443B44",
"B  c #533D43",
"V  c #3F404F",
"C  c #54424B",
"Z  c #5A464C",
"A  c #5B454A",
"S  c #4C4553",
"D  c #564B55",
"F  c #5B4B54",
"G  c #584D58",
"H  c #5D525D",
"J  c #4D434E",
"K  c #694945",
"L  c #764E43",
"P  c #64535A",
"I  c #69565C",
"U  c #775A56",
"Y  c #70514A",
"T  c #7E615C",
"R  c #5D5561",
"E  c #5D5A65",
"W  c #585766",
"Q  c #4D5565",
"!  c #635A64",
"~  c #645E69",
"^  c #655962",
"/  c #5C687A",
"(  c #68636D",
")  c #726168",
"_  c #6B6A75",
"`  c #6C6D7A",
"'  c #676774",
"]  c #736A74",
"[  c #766F79",
"{  c #7B737C",
"}  c #75717C",
"|  c #6E707E",
" . c #853F1E",
".. c #9B431A",
"X. c #88472A",
"o. c #9E4B26",
"O. c #89533A",
"+. c #884F37",
"@. c #A25938",
"#. c #B85E36",
"$. c #B7613A",
"%. c #BC643B",
"&. c #C2653A",
"*. c #C05D30",
"=. c #8A5C48",
"-. c #925C43",
";. c #805D53",
":. c #8D6A5B",
">. c #8A6455",
",. c #946955",
"<. c #9C725D",
"1. c #93634D",
"2. c #B96B48",
"3. c #BD7453",
"4. c #BB785A",
"5. c #A37057",
"6. c #8C7169",
"7. c #917469",
"8. c #8A7877",
"9. c #957C75",
"0. c #876B63",
"q. c #BB7D63",
"w. c #AC7A63",
"e. c #C36C45",
"r. c #C37856",
"t. c #C4724D",
"y. c #C27E61",
"u. c #97817B",
"i. c #BD856E",
"p. c #B18978",
"a. c #C48164",
"s. c #C58469",
"d. c #C6927B",
"f. c #6A7383",
"g. c #727684",
"h. c #7C7D89",
"j. c #787885",
"k. c #606D80",
"l. c #817B85",
"z. c #827E89",
"x. c #7A818D",
"c. c #7D8091",
"v. c #7C8D9E",
"b. c #84818D",
"n. c #8B838A",
"m. c #958787",
"M. c #9C918E",
"N. c #858491",
"B. c #8A8692",
"V. c #8C8A96",
"C. c #8D8D99",
"Z. c #858998",
"A. c #918D97",
"S. c #8C919D",
"D. c #92929E",
"F. c #99959B",
"G. c #A78E86",
"H. c #A6918A",
"J. c #B99485",
"K. c #B79589",
"L. c #A39D9B",
"P. c #A79C99",
"I. c #B99C92",
"U. c #BFA69C",
"Y. c #8E94A2",
"T. c #8798A9",
"R. c #9395A2",
"E. c #9498A6",
"W. c #949BAB",
"Q. c #999DAA",
"!. c #989AA7",
"~. c #929DB2",
"^. c #A19BA4",
"/. c #99A0AE",
"(. c #9BA4B3",
"). c #95ABBD",
"_. c #9EABBA",
"`. c #98A6B4",
"'. c #96ADBE",
"]. c #A4A3A8",
"[. c #B5A8A6",
"{. c #BDB2AF",
"}. c #A3AAB4",
"|. c #A2ADBB",
" X c #A2A6B4",
".X c #A6B2BC",
"XX c #B2B6BC",
"oX c #B6B9BD",
"OX c #C49B89",
"+X c #C0A499",
"@X c #C4A192",
"#X c #C5ADA4",
"$X c #98AEC1",
"%X c #9CB1C3",
"&X c #9EB6C9",
"*X c #A3B4C3",
"=X c #A3B9CB",
"-X c #ACBCCA",
";X c #A8B7C4",
":X c #B3BCC3",
">X c #B4BEC9",
",X c #A3AFC0",
"<X c #AFC0CD",
"1X c #B1C2CD",
"2X c #BAC3CB",
"3X c #A6C1D4",
"4X c #AAC2D4",
"5X c #AAC6DA",
"6X c #ACC9DD",
"7X c #B6C7D5",
"8X c #BED1DE",
"9X c #BBD5E5",
"0X c #C1C1C2",
"qX c #C1CED6",
"wX c #C2DCEA",
"eX c #C5D9E6",
"rX c #CAE7F7",
/* pixels */
"                                                                                              ",
"                                                                                              ",
"                                                                                              ",
"                                                                                              ",
"                                            . . .                                             ",
"                  = > : $ + + + @ @ O O O O O O O O O X O + + @ + % $ ; > >                   ",
"                  $ : 2 6 6 6 6 6 6 9 9 9 0 9 9 9 9 q 0 9 6 6 6 6 w 6 2 > ; #                 ",
"              # O O @ 8 S W ! G F ! ` g.g.g.f.g.f.g.g.g.| ~ F F W W G 9 ; O O +               ",
"            = : @ O ; s ` v.B.b.l.S.`.=X3X&X|.|.*X%X=X=X_.S.b.j.N.Z.j.S , % % & >             ",
"            & > > 3 q P b.L.].(.`._.<X1X1X1X1X1X>X1X1X1X-X.X_. X X].D.( N 4 > ; = $           ",
"        # O % ; 0 / x.n.p.P.[.<X3X*X}.L.L.L.].].].L.L.P.].;X6X6X:XI.J.m.x./ V 3 % O #         ",
"      = ; % O > Q T.;X[.i.a.K.:X5X'.u.:.=.:.7.7.6.:.>.>.u.(.9X9X#Xi.q.I.:X)./ w O O & :       ",
"      > , ; ; 9 / ).1X@Xa.%.i.[..XM.>.X.X.X.X.O.+...x X.-.M.oX0XOXt.&.d.oX*Xg.N < & : > *     ",
"      & , 6 N G [ B.p.a.*.#.t.i.p.i.@.........o.o... ...@.w.p.OXa.&.*.3.p.M.h.^ M 7 2 > #     ",
"      + 2 M ` l.u.0.=.@.#.%.&.3.3.%.%.$.$.$.%.$.&.%.$.$.%.2.r.a.t.e.%.@.-.:.8.z.| G 6 $ o     ",
"      X 2 E Y.|.F.7.=.1.a.a.a.a.3.a.a.i.a.a.a.a.a.a.a.a.a.r.3.3.r.s.4.5.1.:.M.}.Q.` 0 %       ",
"      X 5 ( |.eX2X[.H.H.+X#X+XK.p.p.U.U.U.+X+X+X+X+X+XU.I.J.J.J.@X#X#XI.G.P.2XeX1Xx.q O       ",
"      X 2 ( _.wXwX8X:X:X2XqX>X:X:XXXXX:X:X:X:X:X:X:X:X:X:XXX.XXX:X1X2X1XXX7XwXwX-Xj.i O .     ",
"      o 2 D x._.-X=X$X).$X$X&X3X6X6X5X4X3X3X3X3X=X3X3X3X5X5X5X4X=X&X).).$X&X&X%XZ.( 9 + o     ",
"      * < 9 J E ' k./ / / f.v.$X3X6X5X=X&X%X%X$X%X&X&X=X-X6X5X&XT.f./ / / f./ ( D s 2 & o     ",
"      & > < , , w 8 w 3 3 0 W N._..X_./.W.W.E.E.E.!.W.Q._.,X|.Y.' N 3 3 5 8 5 3 3 < < = #     ",
"      & : 5 5 5 , < - O % ; M _ B.V.x.u.b.N.V.D.A.V.z.l.z.B.V.j.Z 2 + O % < < 2 5 5 < = *     ",
"      # , N G ( F u 1 - - , N P ) I P P ) l.V.F.D.z.] ^ P ) ) I M 4 - - 1 e K ! E S 5 $ o     ",
"      O 5 W T.}.P.,.n e t i M B A h h B ^ h.R./.!.B.) Z g h B B M s t e l =.m.}.~.` 8 + .     ",
"      X 6 ' $X8X0XG.1.=.K B B B d d B F [ z.W. XQ.D.{ P B g a f B A K L =.9.{.qX4Xx.q % .     ",
"      X 2 ( W.7X2XP.9.:.;.L j p d B I g.z.R./. XQ.E.V.l.~ F M a k K U >.7.H.oX7X,Xg.9 O .     ",
"      O 2 D b.(.|.^.A.9.>.=.u g B ^ l.D./.^.W.W.!.!.Q.R.z.( B g l b 1.7.z.!. X XC.~ 9 + .     ",
"      o 2 C ] C.~.~.R.w.<.=.x k B ~ z.R.R.C.z.z.z.Z.D.R.Z.] F h l +.,.9.F.W.~.R.j.G 6 $ X     ",
"      # , M ] V.~.~.R.z.<.-.+.j B ~ f.l.j.] ^ ~ ~ _ ] 8.[ ~ D B v O.,.9.A.~.~.R.8.F 6 $ X     ",
"      O 2 J { D./.~.A.l.<.=.x j B M B Z F B B B B B Z F Z B B B v O.,.9.A.~.~.E.h.H 6 $ X     ",
"      O 2 D h./. X~.z.6.;.x z k M i i r p g g k B g p p i i d g z b =.0.z.R. X(.Z.~ 9 + .     ",
"      X 2 H Z.|.;X~.z.) K z y r i 7 7 t y u l x l l u t 4 7 i p y g z I 8.R.|.*XR.( 9 + .     ",
"      X 5 H Y.<X<X`.b.^ A g r p d i i a z b O.O.O.b v g a i d a r p B P j.E.-X1X`.| 9 + .     ",
"      X 3 ( _.9X9X1XE.{ ^ F A F F P P P U :.<.<.<.:.>.I F P P F Z Z P [ C.*XeX9X=Xj.9 + .     ",
"      X 6 ( _.rXrXwX;XE.N.{ [ { j.l.l.l.n.m.G.G.G.M.n.z.l.j.l.l.} } h.S.|.8XrXrX1Xh.q O       ",
"      X 5 E `.9XrXwX1X_.E.C.V.C.D.D.D.D.R.D.F.R.F.F.D.D.C.D.D.C.V.C.R.(.-X9XrX9X;Xg.9 O       ",
"      % 2 D c._.;X*X`.Y.V.N.b.N.N.N.N.N.c.h.c.h.h.h.N.N.N.N.N.N.z.N.Z.Y.W.|.;X.XS.~ 9 @ o     ",
"      & 2 N H ( ` ` ( ( ! R H R R R ! R E R W R W W R R R E ! H ^ R ! ~ ( _ ` _ E M 6 ; o     ",
"      & , 4 4 6 6 6 6 6 6 6 6 6 4 6 5 4 4 4 6 5 4 4 4 4 4 6 4 5 4 4 6 6 6 6 9 6 6 4 2 ; #     ",
"      & & & + O X X X O O X % O + O O + + + O % + + + + + O + O + + O X O X X X % $ = &       ",
"                                                                                              ",
"                                                                                              ",
"                                                                                              ",
"                                                                                              ",
"                                                                                              ",
"                                                                                              ",
"                                                                                              "
};
